<?xml version="1.0" standalone="no"?>
<!DOCTYPE svg PUBLIC "-//W3C//DTD SVG 20010904//EN"
 "http://www.w3.org/TR/2001/REC-SVG-20010904/DTD/svg10.dtd">
<svg version="1.0" xmlns="http://www.w3.org/2000/svg"
 width="64.000000pt" height="64.000000pt" viewBox="0 0 64.000000 64.000000"
 preserveAspectRatio="xMidYMid meet">

<g transform="translate(0.000000,64.000000) scale(0.100000,-0.100000)"
fill="#FF0000" stroke="none">
<path d="M168 486 c-10 -22 -5 -32 41 -95 l52 -70 -51 -70 c-52 -71 -58 -95
-29 -114 25 -16 45 -3 93 63 l44 61 47 -65 c50 -71 84 -86 105 -46 13 24 5 41
-52 117 -25 32 -37 57 -32 65 4 7 27 39 51 70 45 59 51 76 31 96 -28 28 -55
13 -99 -54 -48 -75 -39 -77 -106 20 -38 54 -76 63 -95 22z"/>
</g>
</svg>
